<?xml version="1.0" encoding="utf-8"?>
<!-- Generator: Adobe Illustrator 28.1.0, SVG Export Plug-In . SVG Version: 6.00 Build 0)  -->
<svg version="1.1" xmlns="http://www.w3.org/2000/svg" xmlns:xlink="http://www.w3.org/1999/xlink" x="0px" y="0px"
	 viewBox="0 0 595.28 841.89" style="enable-background:new 0 0 595.28 841.89;" xml:space="preserve">
<style type="text/css">
	.st0{fill:#EBEA6D;stroke:#000000;stroke-miterlimit:10;}
	.st1{fill:#FDE8F1;stroke:#000000;stroke-miterlimit:10;}
	.st2{stroke:#000000;stroke-miterlimit:10;}
	.st3{fill:none;stroke:#FFFFFF;stroke-miterlimit:10;}
	.st4{fill:#38AA49;stroke:#000000;stroke-miterlimit:10;}
	.st5{fill:#F0566D;stroke:#000000;stroke-miterlimit:10;}
	.st6{fill:#ED1C24;stroke:#000000;stroke-miterlimit:10;}
	.st7{fill:#8C479B;stroke:#000000;stroke-miterlimit:10;}
	.st8{stroke:#662C8C;stroke-miterlimit:10;}
	.st9{fill:#99CF90;stroke:#000000;stroke-miterlimit:10;}
	.st10{fill:#FAA72C;stroke:#000000;stroke-miterlimit:10;}
	.st11{fill:none;stroke:#A94924;stroke-miterlimit:10;}
</style>
<g id="pandehår">
	<path class="st0" d="M305.04,288.81c-4.56,0.66-10.62,3.71-14.69,4.29c-0.01,0.04,1.61-0.36,1.6-0.32
		c5.03-0.72,7.46-2.17,7.46-2.17s0,0-5.4,1.57c-0.57,0.94-3.88,1.27-5.27,1.63c-4.79,1.23-9.52,2.66-14.24,4.1
		c-37.54,16.01-100.15,59.92-75.43,170.69c0,0,15.58,69.87,34.23,100.14c0,0,0.92-7.64,5.2-8.25c4.28-0.61,9.17-9.17,12.23-6.11
		c0,0,9.17-1.22,6.11,14.37c0,0,8.56,7.03,10.39,11.31c0,0,9.78,1.22,12.84-15.9l12.23-7.95c0,0-52.59-10.26-58.7-29.28
		c0,0-30.57-57.54-20.79-58.16c0,0,33.02-23.24,38.52-26.9c5.5-3.67-15.29-104.56,20.79-129.02c0,0-48.92,89.89,5.5,136.97
		l45.86-5.5c0,0,11.52-88.09,7.22-120.05c15.59,32.9,60.12,125.4,66.16,121.88c7.34-4.28,19.57,61.76-4.28,75.82h11.01
		c0,0,14.68-11.01,18.34-7.95c3.67,3.06,12.23-9.32,12.23-9.32S466.97,265.39,305.04,288.81z"/>
</g>
<g id="hud_ansigt">
	<path class="st1" d="M252.27,438.31l-39.45,30.45c0,0,11.25,53.74,23.65,63.27s46.67,26,74.18,28.45c0,0,62.37-17.73,73.99-28.13
		s34.32-32.18,15.63-83.97c0,0-77.68-127.36-71.42-132.07c0,0-0.78,46.37-2.14,83.32c-0.86,23.17-1.94,42.64-3.21,44.66l-45.86,5.5
		c0,0-50.14-40.36-5.5-136.97C272.13,312.84,237.91,335.7,252.27,438.31z"/>
</g>
<g id="næse">
	<path class="st2" d="M301.86,497.58c0,0,3.67-8.03,11.24-3.67C313.1,493.91,305.76,492.53,301.86,497.58z"/>
</g>
<g id="øjne_grøn">
	<path class="st3" d="M229.32,463.26"/>
	<path class="st4" d="M236.28,463.26c0,0-2.98,43.72,19.26,45.78s15.36-33.48,15.36-33.48s-5.73-3.67-8.71,1.15
		c-2.98,4.82-13.07-1.15-5.27-6.88c0,0,2.06-0.69,1.83,2.75c0,0,3.21,1.61,9.17-2.29l0.92-2.98c0,0,1.15,2.29,5.73,3.67
		c4.59,1.38,5.73,43.11-14.68,47.24s-33.48-41.27-26.83-53.89L236.28,463.26z"/>
	<path class="st4" d="M348.41,442.77c0,0-16.28,43.34,11.92,51.82c0,0,22.24,5.5,23.85-41.5c0,0-4.13-4.36-5.73,2.98
		c0,0-1.91,15.82-9.9,8.48c0,0-3.86-13.3,6.69-12.38c0,0,6.19-4.13,6.19-4.82c0,0,4.82-2.29,8.03,2.29c0,0-1.01,41.73-22.86,49.3
		c0,0-20.25,10.78-26.21-18.8C340.38,480.15,336.25,442.09,348.41,442.77z"/>
</g>
<g id="øjne_sort">
	<path class="st2" d="M236.28,463.26c0,0-5.96,2.45-9.4,3.36c0,0-3.9,9.54-5.96,12.45c0,0-5.47,1.51,0-4.88c0,0-0.69,1.83,2.75-8.03
		c0,0-5.96-3.52,1.15-2.9c0,0,3.44-0.54,8.94-3.29c0,0-7.8-7.11,3.9-2.52l7.34-2.75c0,0-4.13-5.73,3.44-2.06
		c0,0,3.21-0.23,4.59,0.92l19.95,13.07c0,0,8.48,2.82,7.34,5.19c0,0-7.92,1.2-11.46-4.51c0,0-1.38,6.88-10.09,5.27
		c0,0-2.41-6.37-4.42,3.12c0,0,4.22,6.11,10.05-1.03c0,0,6.17-1.29,6.52,0.89c0,0,6.45,36.84-13.97,33.55
		C256.93,509.12,233.53,513.32,236.28,463.26z"/>
	<path class="st2" d="M348.41,442.77c0,0-41.27,38.98-5.27-1.15c0,0-11.92-6.19,10.09-2.52c0,0-11.69-12.38,5.73-2.98l4.13,0.46
		c0,0-23.62-21.55,27.97,11.01l-1.61,2.06c0,0-4.42-5.37-11.5,0.64l-2.72,1.88c0,0-8.21-0.89-7.32,8.73c0,0,4.33,12.65,9.95-1.82
		c0,0,0.58-11.26,6.31-5.99c0,0,0.23,45.17-23.85,41.5C360.33,494.6,332.59,490.01,348.41,442.77z"/>
</g>
<g id="bryn">
	<path class="st2" d="M339.71,408.38c0,0,1.13-7.34,8.01-6.19C347.72,402.19,350.95,405.63,339.71,408.38z"/>
</g>
<g id="underlæbe">
	<path class="st5" d="M299.09,522.49c-3.58,1.62-6.47,4.12-4.25,7.37c5.09,7.48,14.25,14.71,28.61,5.36c0,0,8.17-3.27,8.68-15.63
		c0.11-2.73-2.06-5.01-4.79-5.01l0,0c-0.77,0-1.06-0.15-2.09,0C321.19,515.15,309.28,517.9,299.09,522.49z"/>
	<path class="st5" d="M298.32,522.8"/>
</g>
<g id="hals">
	<path class="st1" d="M304.42,559.71c0,0,3.57,9.18,5.78,10.33c0,0,2.41-5.04-0.1,4.36c0,0,14,7.57,21.57,0c0,0-0.48-4.13,2.74-7.8
		c3.22-3.67,1.16-0.23,1.16-0.23s5.26-15.2,0.78-13.76C331.86,554.05,304.42,559.71,304.42,559.71z"/>
</g>
<g id="hænder">
	<path class="st1" d="M421.94,514.01c0,0-7.26,17.73,8.56,25.3c0,0,9.86-0.69,8.94-2.75c0,0,24.34-5.89,19.96-7.64l-3-2
		c0,0,9.86-2.28-0.23-4.8c0,0,10.78-4.13-1.15-5.04c0,0,18.34-8.48-15.36-3.9c0,0,13.76-6.88-5.5-8.48L421.94,514.01z"/>
	<path class="st1" d="M248.43,559.49c0,0,4.59,44.25,8.14-1.49c0,0-4.12-10.63-15.07,1.05c0,0-16.69,4.57-1.56,27.04
		c0,0,6.42,1.49,11.92-6.02c5.5-7.51-8.48-4.07-8.48-4.07s13.3-4.36-0.69-7.34c0,0,13.07-2.98,0.69-4.82L248.43,559.49z"/>
</g>
<g id="negle">
	<path class="st6" d="M440.5,507.21c0,0-1.98-3.44,10.64-1.15L440.5,507.21z"/>
	<path class="st6" d="M458.06,512.02c0,0,4.53-1.61,8.2-1.15c3.67,0.46-8.2,4.49-8.2,4.49S461.09,512.24,458.06,512.02z"/>
	<path class="st6" d="M459.17,517.73c0,0,3.23-1.86,7.8,0c0,0-6.88,4.39-7.8,2.89C458.24,519.13,463.3,518.4,459.17,517.73z"/>
	<path class="st6" d="M459.05,523.03c0,0,4.73-0.69,7.92,0c3.19,0.69-8.53,3.32-7.92,3.01
		C459.66,525.72,461.92,523.95,459.05,523.03z"/>
	<path class="st6" d="M458.06,528.02c0,0,1.55-1.2,6.6,0s-6.6,2.86-6.6,2.86S461.78,529.34,458.06,528.02z"/>
	<path class="st6" d="M251.02,575.35c0,0-0.75,3.86,1.54,7.07c0,0,1.4,1.73,1.8-4.67c0.04-0.7,0.08-1.5,0.09-2.4
		C254.45,575.35,252.91,574.01,251.02,575.35z"/>
</g>
<g id="jakke">
	<path class="st7" d="M304.42,559.71c0,0-12.46-2.6-14.07-3.05s-10.28,7.49-10.28,7.49s-2.06,14.71-11.92,15.92
		c0,0-9.88-12.32-11.31-11.33l-1.35,6.01c0,0-1.12,8.62-2.94,7.67l-1.66-1.13c0,0-7.05,8.14-10.95,4.79c0,0-2.45-1.82-5.01-5.43
		c0,0-9.73,1.65,0,23.24c0,0-13.7,27.27,17.73,34.06c0,0-11.86,13.76,19.51,21.46c0,0,9.17,3.3,21.65-34.12
		c0,0,9.05-23.48,16.27-53.56C310.1,571.73,316.1,570.43,304.42,559.71z"/>
	<path class="st7" d="M338.15,552.02c0,0-10.38,22.65-5.43,21.73c0,0,7.74,13.57,5.43,20.55c0,0-3.41,51.91-0.84,51.91
		c0,0,2.75,32.29,9.54,28.98c0,0,11.74-3.76,36.41-23.07c0,0,10-1.95,0-15.58c0,0-7.43-26.47-6.42-32.8c0,0,12.75-3.85,44.94-48.84
		c0,0,22.38-3.81,17.66-18.34c0,0-4.54,3.16-8.94,2.75c0,0-14.86-3.06-9.17-26.23c0,0-10.15,0.01-17.73,8.88c0,0-8.85,0-8.85,0
		C394.74,521.96,382.29,540.74,338.15,552.02z"/>
	<path class="st8" d="M281.4,562.97"/>
</g>
<g id="jakke_folder">
	<path class="st2" d="M235.13,600.76c0,0,28.05,2.6-0.19,3.13"/>
	<path class="st2" d="M265.85,577.76c0,0-3.32,26.01,2.59,2.27"/>
	<path class="st2" d="M250.9,637.91c0,0,42.02-71.62,0.74,1.45"/>
	<path class="st2" d="M295.21,568.2c0,0-2.52,20.93-12.61,21.82"/>
	<path class="st2" d="M375.01,541.45c0,0-4.13,8.22-3.21,11.07"/>
	<path class="st2" d="M370.19,569.89c0,0,0.69,27.44,4.82,26.98"/>
	<path class="st2" d="M402.52,522c0,0,0.08,22.74,1.07-0.04"/>
	<path class="st2" d="M426.51,553.57c0,0-31-2.62-3.65,1.08"/>
</g>
<g id="kjole">
	<path class="st9" d="M310.1,574.39c0,0,16.48,7.43,21.57,0c5.09-7.43,7.82,35.91,4.99,48.73c-2.83,12.82,2.85,54.09,10.19,52.07
		c7.34-2.02,36.41-23.07,36.41-23.07s9.45,41.23,2.48,51.13c-6.97,9.91-85.42,3.85-85.42,3.85s-47.87-9.81-49.42-17.61
		c-1.55-7.8,7.39-35.18,7.39-35.18s17.5,18.15,28.64-11.38C286.92,642.94,306.19,595.26,310.1,574.39z"/>
</g>
<g id="ben">
	<path class="st1" d="M250.9,689.5l-3.36,8.48c0,0,18.09,16.28,26.11,14.68l7.74-10.02C281.4,702.64,251.03,693.16,250.9,689.5z"/>
	<path class="st1" d="M332.35,708.73v7.83c0,0,27.29,3.67,34.17,0v-8.26C366.52,708.3,355.31,709.75,332.35,708.73z"/>
</g>
<g id="sko">
	<path class="st10" d="M247.54,697.99c0,0-39.92,50.9-21.12,64.66c0,0,22.7,15.82,31.87-30.73c0,0,7.11-11.46,15.36-19.26
		C273.66,712.66,253.3,708.3,247.54,697.99z"/>
	<path class="st10" d="M332.35,716.56c0,0-4.58,74.29,32.8,68.79c0,0,22.01-4.36-1.83-49.3l3.21-19.49
		C366.52,716.56,350.69,721.14,332.35,716.56z"/>
</g>
<g id="snørebånd">
	<path class="st2" d="M256.41,705.08l-4.3,6.43c0,0-7.57-2.96-2.29,1.73c0,0-26.91,50.78,2.36,1.71c0,0,12.08,3.89,1.99-2.18
		l4.02-6.44L256.41,705.08z"/>
	<path class="st2" d="M345.2,718.19l1.15,8c0,0-9.17,1.38,0,3.9c0,0,16.05,56.64,3.09,0c0,0,8.37-5.27,0-4.13l-2.58-8.03
		L345.2,718.19z"/>
</g>
<g id="nyt_gult_hår">
	<path class="st11" d="M512.81,196.17"/>
</g>
</svg>
