<?xml version="1.0" encoding="utf-8"?>
<!-- Generator: Adobe Illustrator 28.0.0, SVG Export Plug-In . SVG Version: 6.00 Build 0)  -->
<svg version="1.1" xmlns="http://www.w3.org/2000/svg" xmlns:xlink="http://www.w3.org/1999/xlink" x="0px" y="0px"
	 viewBox="0 0 595.28 841.89" style="enable-background:new 0 0 595.28 841.89;" xml:space="preserve">
<style type="text/css">
	.st0{fill:#FFFFFF;stroke:#000000;stroke-miterlimit:10;}
	.st1{opacity:0.99;fill:#DE1F26;}
	.st2{fill:#DE1F26;}
</style>
<g id="Layer_1">
</g>
<g id="left_side">
	<path class="st0" d="M312.21,356.12"/>
	<path class="st1" d="M174.13,281.28c0,0,45.48-62.59,107.54,2.81l20.44,25.99l-18.76,27.95l15.9,25.01l-27.48,30.55l23.31,30.01
		l-12.54,34.36L179.89,353.84C179.89,353.84,150.95,318.11,174.13,281.28z"/>
</g>
<g id="right_side">
	<path class="st2" d="M309.22,288.21c0,0,54.69-77.71,107.55,2.07c0,0,20.8,26.66,0,61.18L308.41,462.62l12.54-34.36l-23.31-30.01
		l27.48-30.55l-15.9-25.01l19.53-29.1L309.22,288.21z"/>
</g>
</svg>
