<?xml version="1.0" encoding="utf-8"?>
<!-- Generator: Adobe Illustrator 28.0.0, SVG Export Plug-In . SVG Version: 6.00 Build 0)  -->
<svg version="1.1" xmlns="http://www.w3.org/2000/svg" xmlns:xlink="http://www.w3.org/1999/xlink" x="0px" y="0px"
	 viewBox="0 0 595.28 841.89" style="enable-background:new 0 0 595.28 841.89;" xml:space="preserve">
<style type="text/css">
	.st0{fill:#FFFFFF;stroke:#939598;stroke-miterlimit:10;}
	.st1{fill:none;stroke:#38B44A;stroke-width:3;stroke-miterlimit:10;}
	.st2{fill:#EDEEEF;stroke:#FFFFFF;stroke-miterlimit:10;}
	.st3{fill:#EEE819;}
</style>
<g id="Bag">
	<path class="st0" d="M257.03,495.56"/>
	<path class="st1" d="M257.03,495.56c0,0-20.48,226.97-6.3,243.42"/>
</g>
<g id="Mellem">
	<g>
		<g>
			
				<ellipse transform="matrix(0.9877 -0.1564 0.1564 0.9877 -38.0041 40.911)" class="st0" cx="240.91" cy="261.9" rx="19.5" ry="101.5"/>
			
				<ellipse transform="matrix(0.9877 -0.1564 0.1564 0.9877 -68.9779 48.347)" class="st0" cx="272.67" cy="462.4" rx="19.5" ry="101.5"/>
		</g>
		<g>
			
				<ellipse transform="matrix(0.9877 -0.1564 0.1564 0.9877 -57.2092 29.1422)" class="st0" cx="156.54" cy="378.03" rx="101.5" ry="19.5"/>
			
				<ellipse transform="matrix(0.9877 -0.1564 0.1564 0.9877 -49.7731 60.116)" class="st0" cx="357.04" cy="346.28" rx="101.5" ry="19.5"/>
		</g>
	</g>
	<g>
		<g>
			
				<ellipse transform="matrix(0.394 -0.9191 0.9191 0.394 -67.2632 435.7125)" class="st2" cx="296.78" cy="268.86" rx="101.5" ry="19.5"/>
			
				<ellipse transform="matrix(0.394 -0.9191 0.9191 0.394 -287.2213 475.2735)" class="st2" cx="216.8" cy="455.44" rx="101.5" ry="19.5"/>
		</g>
		<g>
			
				<ellipse transform="matrix(0.394 -0.9191 0.9191 0.394 -197.0228 345.5142)" class="st2" cx="163.5" cy="322.16" rx="19.5" ry="101.5"/>
			
				<ellipse transform="matrix(0.394 -0.9191 0.9191 0.394 -157.4616 565.4722)" class="st2" cx="350.08" cy="402.14" rx="19.5" ry="101.5"/>
		</g>
	</g>
	<g>
		<g>
			
				<ellipse transform="matrix(0.8567 -0.5159 0.5159 0.8567 -112.4231 143.0954)" class="st0" cx="201.3" cy="273.86" rx="19.5" ry="101.5"/>
			
				<ellipse transform="matrix(0.8567 -0.5159 0.5159 0.8567 -187.1246 222.0444)" class="st0" cx="306.02" cy="447.76" rx="19.5" ry="101.5"/>
		</g>
		<g>
			
				<ellipse transform="matrix(0.8567 -0.5159 0.5159 0.8567 -189.2485 145.2193)" class="st0" cx="166.7" cy="413.17" rx="101.5" ry="19.5"/>
			
				<ellipse transform="matrix(0.8567 -0.5159 0.5159 0.8567 -110.2994 219.9208)" class="st0" cx="340.61" cy="308.45" rx="101.5" ry="19.5"/>
		</g>
	</g>
	<g>
		<g>
			
				<ellipse transform="matrix(0.1271 -0.9919 0.9919 0.1271 -199.887 451.6992)" class="st0" cx="156.68" cy="339.41" rx="19.5" ry="101.5"/>
			
				<ellipse transform="matrix(0.1271 -0.9919 0.9919 0.1271 -49.7016 673.938)" class="st0" cx="358.04" cy="365.21" rx="19.5" ry="101.5"/>
		</g>
		<g>
			
				<ellipse transform="matrix(0.1271 -0.9919 0.9919 0.1271 -235.9136 637.9116)" class="st0" cx="244.46" cy="452.99" rx="101.5" ry="19.5"/>
			
				<ellipse transform="matrix(0.1271 -0.9919 0.9919 0.1271 -13.6748 487.726)" class="st0" cx="270.26" cy="251.63" rx="101.5" ry="19.5"/>
		</g>
	</g>
	<g>
		<g>
			
				<ellipse transform="matrix(0.6682 -0.7439 0.7439 0.6682 -257.6543 275.4136)" class="st0" cx="179.97" cy="426.59" rx="101.5" ry="19.5"/>
			
				<ellipse transform="matrix(0.6682 -0.7439 0.7439 0.6682 -100.3008 326.2306)" class="st0" cx="315.63" cy="275.57" rx="101.5" ry="19.5"/>
		</g>
		<g>
			
				<ellipse transform="matrix(0.6682 -0.7439 0.7439 0.6682 -204.386 379.4991)" class="st0" cx="323.31" cy="418.91" rx="19.5" ry="101.5"/>
			
				<ellipse transform="matrix(0.6682 -0.7439 0.7439 0.6682 -153.5691 222.1455)" class="st0" cx="172.29" cy="283.26" rx="19.5" ry="101.5"/>
		</g>
	</g>
</g>
<g id="For">
	<circle class="st3" cx="254.65" cy="348.65" r="40.42"/>
</g>
</svg>
