<?xml version="1.0" encoding="utf-8"?>
<!-- Generator: Adobe Illustrator 28.0.0, SVG Export Plug-In . SVG Version: 6.00 Build 0)  -->
<svg version="1.1" xmlns="http://www.w3.org/2000/svg" xmlns:xlink="http://www.w3.org/1999/xlink" x="0px" y="0px"
	 viewBox="0 0 595.28 841.89" style="enable-background:new 0 0 595.28 841.89;" xml:space="preserve">
<style type="text/css">
	.st0{fill:#F27349;}
	.st1{fill:#FBEE30;}
	.st2{fill:none;stroke:#38B44A;stroke-width:3;stroke-miterlimit:10;}
	.st3{fill:#EF4137;}
</style>
<g id="Bag">
	<path class="st0" d="M278.39,294.91c-0.84,0.8-1.69,1.58-2.69,2.16c-5.34,3.09-19.81,11.85-21.05,16.56
		c-1.52,5.79-7.16,24.54,1.52,33.38c8.69,8.84,18.17,7.59,18.17,7.59s22.38,3.23,22.68,11.01c0,0,19.81,26.37,36.05,30.79
		c0,0,30.87-2.13,37.88-7.47c0,0,9.32-3.32,14.25-7.17c1.83-1.43,2.56-3.85,1.97-6.09c-0.63-2.4-1.21-5.82-0.21-7.92
		c0,0,16.46-16.31,15.24-24.39c0,0,1.15-19.76-6.12-23.49c-1.55-0.79-2.64-2.24-3.12-3.91c-2.05-7.26-8.44-23.18-19.08-25.02
		c-1.24-0.21-2.45-0.54-3.58-1.1c-7.17-3.55-33.17-16.19-43.65-18.04c-2.18-0.38-4.33,0.75-5.21,2.78
		c-2.53,5.82-9.22,20.76-14.67,28.38C306.78,302.96,283.71,289.85,278.39,294.91z"/>
	<circle cx="333.07" cy="346.21" r="17.31"/>
	<circle class="st1" cx="333.07" cy="346.21" r="7.73"/>
	<path class="st2" d="M340.8,413.17c0,0,14.91,67.15,9.58,90.34c-5.34,23.19-18.07,86.85-14.88,100.94"/>
</g>
<g id="For">
	<path class="st3" d="M315.94,345.28c0,0-29.1,2.27-30.01-4.09c-0.91-6.37-8.64-25.92-4.09-35.01c2.82-5.65,5.82-2.53,11.28-6.64
		c3.12-2.35,7.04-7.06,12.19-17.11c0.68-1.33,2-2.21,3.49-2.31c7-0.47,26.94-2.18,28.06-6.68c1.36-5.46,40.47-3.18,35.47,14.55
		c0,0,2.73,13.19,11.82,24.1c7.85,9.41-15.78,30.34-22.42,35.9c-1.02,0.86-2.43,1.07-3.67,0.57l-4.04-1.65
		c-0.72-0.29-0.65-1.33,0.1-1.53l5.48-1.46l0.54-3.76l-4.73-0.15v0.76l-0.19-2.52c-0.07-1,0.37-1.96,1.17-2.56l3.83-2.87
		c0.22-0.17,0.3-0.46,0.18-0.71l0,0c-0.47-1.02-1.7-1.44-2.69-0.93l-8.38,4.25l4.18-6.15c0.23-0.34-0.16-0.76-0.52-0.54l-5.68,3.47
		c-0.48,0.29-1.1-0.02-1.15-0.57l-0.86-8.62c-0.06-0.64-0.94-0.78-1.19-0.19l-2.18,4.95c-0.34,0.77-1.41,0.81-1.81,0.08l-4.71-8.5
		c-0.2-0.36-0.74-0.3-0.86,0.1l-2.09,7.48c-0.22,0.79-1.22,1.05-1.8,0.46l-3.92-4.02c-0.27-0.27-0.73-0.17-0.85,0.19l-2.35,6.66
		c-0.13,0.37-0.6,0.49-0.89,0.23l-3.76-3.36c-0.58-0.52-1.51-0.16-1.58,0.62l-0.59,6.65l-7.51,3.22c-0.9,0.39-1.02,1.62-0.2,2.17
		l6.95,4.67L315.94,345.28z"/>
	<path class="st3" d="M313.98,351.38c-5.4-1.43-25.47-6.57-29.5-4.79c-1.19,0.52-2.38,1.04-3.65,1.31
		c-4.63,1-13.22,4.33-14.44,15.27c0,0-2.74,18.14,5.34,26.52c8.08,8.38,5.03,14.33,17.99,16.61c0,0,5.03,0.15,16.92,5.18
		c11.89,5.03,39.48,1.98,39.48,0c0,0,23.47-11.28,22.25-21.95c0,0-2.17-18.54,0.88-26.73c0.67-1.81,0.33-3.85-0.9-5.34l-2.19-2.68
		c-1.09-1.33-2.79-2.01-4.5-1.81l-2.28,0.28l0.85,3.29c0.17,0.66-0.41,1.27-1.08,1.13l-7.81-1.65c-1.08-0.23-2.02,0.77-1.72,1.83
		c0.66,2.35,1.82,5.94,3.22,8.02c0.16,0.24-0.1,0.52-0.35,0.4c-0.98-0.48-2.45-1.22-3.81-1.94c-0.57-0.3-1.25,0.15-1.19,0.8
		l0.52,5.46c0.03,0.37-0.41,0.58-0.67,0.32l-6.29-6.29c-0.44-0.44-1.19-0.22-1.33,0.38l-1.66,7.15l-2.59-0.15l-0.3-7.01
		c0,0-2.13-3.51-11.43,6.86l-3.09,0.35c-1.23,0.14-2.31-0.83-2.31-2.07v-4.99h-3.89l-0.25-1.62c-0.2-1.32-1.4-2.26-2.73-2.14
		l-1.79,0.15c-0.47,0.04-0.78-0.49-0.51-0.88l5.4-7.79C314.91,352.32,314.63,351.55,313.98,351.38z"/>
</g>
</svg>
