<?xml version="1.0" encoding="utf-8"?>
<!-- Generator: Adobe Illustrator 28.0.0, SVG Export Plug-In . SVG Version: 6.00 Build 0)  -->
<svg version="1.1" xmlns="http://www.w3.org/2000/svg" xmlns:xlink="http://www.w3.org/1999/xlink" x="0px" y="0px"
	 viewBox="0 0 595.28 841.89" style="enable-background:new 0 0 595.28 841.89;" xml:space="preserve">
<style type="text/css">
	.st0{fill:#F4BB19;}
	.st1{fill:#37B44A;}
	.st2{fill:#FED82B;}
	.st3{fill:#F3EA18;}
	.st4{opacity:0.3;fill:#FEBE28;}
	.st5{fill:#3D2911;}
	.st6{opacity:0.5;fill:#503110;}
</style>
<g id="Bag">
	<path class="st0" d="M412.77,278.52l-86.23,18.74c-1.3,0.28-2.16,1.53-1.97,2.85l11.68,79.01c0.89,6.02-6.97,9.11-10.42,4.1
		l-44.58-64.78c-0.73-1.06-2.13-1.4-3.27-0.81l-63.87,33.61c-4.92,2.59-9.86-3.4-6.39-7.74l47.37-59.22c0.8-1,0.73-2.43-0.16-3.35
		L193,217.24c-1.85-1.9,0.1-5.01,2.62-4.17l84.49,28.26c1.16,0.39,2.44-0.11,3.03-1.19l40.3-73.6c1.31-2.39,4.96-1.31,4.75,1.41
		l-6.59,84.28c-0.1,1.27,0.76,2.42,2.01,2.68l89.13,18.65C415.42,274.13,415.44,277.94,412.77,278.52z"/>
	<polyline class="st1" points="285,390.19 282.44,541.64 291.97,541.64 297.64,390.2 	"/>
	<path class="st1" d="M290.73,441.26c0,0,33.03-33.07,46.79-27.11c0,0,27.97,3.21,23.85,20.18
		C361.36,434.33,295.76,446.36,290.73,441.26z"/>
	<path class="st1" d="M291.23,438.16c0,0-48.56-29.98-55.9-15.22c0,0-4.44,4.21-7.27,12.01
		C225.24,442.75,291.23,438.16,291.23,438.16z"/>
</g>
<g id="Mellem">
	<path class="st2" d="M392.26,325.29l-63.79,8.65c-1.61,0.22-3.01,1.22-3.75,2.67l-29.04,57.45c-1.85,3.66-7.08,3.61-8.86-0.08
		l-27.94-58c-0.71-1.47-2.09-2.49-3.69-2.74l-63.61-9.86c-4.05-0.63-5.62-5.62-2.66-8.45l46.52-44.49c1.18-1.12,1.72-2.75,1.46-4.36
		l-10.28-63.55c-0.65-4.04,3.61-7.08,7.22-5.14l56.69,30.5c1.43,0.77,3.15,0.79,4.6,0.04l57.26-29.41c3.64-1.87,7.85,1.25,7.12,5.28
		l-11.49,63.34c-0.29,1.6,0.23,3.24,1.38,4.39l45.67,45.37C397.99,319.77,396.32,324.74,392.26,325.29z"/>
</g>
<g id="For">
	<path class="st3" d="M352.63,369.84l-59.72-27.92c-1.73-0.81-3.75-0.71-5.39,0.25l-56.85,33.37c-4.15,2.43-9.28-0.94-8.69-5.71
		l8.09-65.43c0.23-1.89-0.48-3.78-1.91-5.05l-49.31-43.76c-3.59-3.19-1.97-9.12,2.75-10.03l64.73-12.52
		c1.87-0.36,3.45-1.62,4.21-3.37l26.38-60.42c1.92-4.4,8.06-4.69,10.39-0.49l31.91,57.69c0.92,1.67,2.61,2.78,4.51,2.96l65.61,6.42
		c4.78,0.47,6.95,6.22,3.67,9.73l-45,48.17c-1.3,1.39-1.84,3.34-1.43,5.21l14.17,64.38C361.78,368.03,356.98,371.88,352.63,369.84z"
		/>
	<path class="st4" d="M317.97,334.9l-30-15.74l-33.7,17.75c-4.2,2.21-9.11-1.35-8.31-6.03l6.41-37.54l-30.18-29.37
		c-2.22-2.16-1-5.93,2.07-6.38l41.67-6.09l16.43-33.36c2.26-4.58,8.79-4.59,11.06-0.01l16.48,33.34l39.57,5.72
		c3.93,0.57,5.5,5.39,2.66,8.17l-28.61,27.93l5.75,33.39C330.37,333.04,323.69,337.9,317.97,334.9z"/>
	<circle class="st5" cx="287.48" cy="281.16" r="36"/>
	<circle class="st6" cx="287.94" cy="280.91" r="18.34"/>
</g>
</svg>
